# xmcd
# Track frame offsets:
# 150
# 17071
# 31875
# 45442
# 58881
# 73460
# 84924
# 99525
# 113244
# 132118
# 148052
# 160635
# 173787
# 186847
# 203677
#
# Disc length: 2946 seconds
# Revision: 0
# Processed by: cddbd v1.5.1PL0 Copyright (c) Steve Scherf et al.
# Submitted via: VisiTrax 2.9.10.228 - For more info visit www.synapsa.com
#
DISCID=cb0b800f
DTITLE=Chesnutt, Mark - CB90024
DYEAR=1900
DGENRE=Karaoke
TTITLE0=Too Cold At Home
TTITLE1=Brother Jukebox
TTITLE2=Blame It On Texas
TTITLE3=Your Love Is A Miracle
TTITLE4=Broken Promise Land
TTITLE5=Old Flames Have New Names
TTITLE6=Bubba Shot The Jukebox
TTITLE7=It Sure Is Monday
TTITLE8=Almost Goodbye
TTITLE9=I Just Wanted You To Know
TTITLE10=Goin' Through The Big 'D'
TTITLE11=Gonna Get A Life
TTITLE12=It's A lIttle Too Late
TTITLE13=Wrong Place, Wrong Time
TTITLE14=I Don't Want To Miss A Thing
EXTD=
EXTT0=
EXTT1=
EXTT2=
EXTT3=
EXTT4=
EXTT5=
EXTT6=
EXTT7=
EXTT8=
EXTT9=
EXTT10=
EXTT11=
EXTT12=
EXTT13=
EXTT14=
PLAYORDER=
